<svg width="120" height="120" viewBox="0 0 120 120" fill="none" xmlns="http://www.w3.org/2000/svg">
  <rect width="120" height="120" fill="transparent"/>
  <!-- Boxing gloves -->
  <ellipse cx="45" cy="50" rx="12" ry="18" fill="#FF0000" stroke="#CC0000" stroke-width="2"/>
  <ellipse cx="75" cy="50" rx="12" ry="18" fill="#FF0000" stroke="#CC0000" stroke-width="2"/>
  <!-- Glove details -->
  <ellipse cx="45" cy="45" rx="8" ry="12" fill="#FF4444"/>
  <ellipse cx="75" cy="45" rx="8" ry="12" fill="#FF4444"/>
  <!-- Impact stars -->
  <polygon points="60,25 62,30 67,30 63,33 65,38 60,35 55,38 57,33 53,30 58,30" fill="#FFD700"/>
  <polygon points="40,75 41,78 44,78 42,80 43,83 40,81 37,83 38,80 36,78 39,78" fill="#FFD700"/>
  <polygon points="80,75 81,78 84,78 82,80 83,83 80,81 77,83 78,80 76,78 79,78" fill="#FFD700"/>
</svg>